<svg width="512" height="512" viewBox="0 0 512 512" xmlns="http://www.w3.org/2000/svg">
  <defs>
    <linearGradient id="bg" x1="0" y1="0" x2="1" y2="1">
      <stop offset="0%" stop-color="#0F766E" />
      <stop offset="100%" stop-color="#14B8A6" />
    </linearGradient>
  </defs>
  <rect x="32" y="32" width="448" height="448" rx="112" fill="url(#bg)" />
  <circle cx="256" cy="256" r="128" fill="#FFFFFF" opacity="0.15" />
  <path d="M256 150C197.5 150 150 197.5 150 256C150 314.5 197.5 362 256 362C314.5 362 362 314.5 362 256C362 197.5 314.5 150 256 150ZM256 340C209.6 340 172 302.4 172 256C172 209.6 209.6 172 256 172C302.4 172 340 209.6 340 256C340 302.4 302.4 340 256 340Z" fill="#FFFFFF" />
  <path d="M245 193H267V266H245V193Z" fill="#FFFFFF" />
  <path d="M256 255L307 286L296 305L245 274L256 255Z" fill="#FFFFFF" />
</svg>
